<svg width="68" height="69" viewBox="0 0 68 69" fill="none" xmlns="http://www.w3.org/2000/svg">
<path d="M61.2769 9.05883C60.7802 8.72758 60.1126 8.86787 59.7861 9.37216C59.4597 9.87645 59.5979 10.5536 60.0949 10.8849C63.0223 12.836 64.9117 15.6242 65.5779 18.9037C65.0905 18.5296 64.5298 18.1432 63.9041 17.7831C60.7196 15.9503 57.3752 15.6638 54.2318 16.9539C49.8202 18.7649 47.6391 17.7704 46.3821 16.8644C46.032 16.6125 45.6909 16.3166 45.3394 15.9597C44.919 15.5329 44.2374 15.5328 43.8169 15.9595C43.3965 16.3859 43.3963 17.0776 43.8167 17.5042C44.0081 17.6983 44.1982 17.8768 44.3891 18.0455C43.2551 19.6466 40.6021 20.353 39.0373 20.5795C38.442 19.3968 37.2972 16.6541 38.222 14.5424C40.2471 9.91876 46.4946 8.27813 51.2289 8.27813C53.476 8.27813 55.7272 8.73795 57.7389 9.60786C58.2865 9.84437 58.9183 9.58603 59.1514 9.03107C59.3845 8.47597 59.1302 7.83449 58.5831 7.59784C56.3066 6.61352 53.7636 6.09332 51.2289 6.09332C42.6303 6.09332 37.8557 9.99935 36.2545 13.655C34.8173 16.9361 36.6999 20.8311 37.3365 21.9894L37.2494 22.9043C35.3273 23.1554 33.8369 24.8253 33.8369 26.843C33.8369 28.5988 34.952 30.0904 36.5171 30.6145C36.1984 34.2505 37.8017 37.8336 40.7152 39.9818L40.9431 40.1498C37.6934 41.6755 35.5022 45.0166 35.5022 48.7835V61.8142C35.5022 62.4176 35.9841 62.9066 36.5788 62.9066H64.3169C64.9116 62.9066 65.3934 62.4176 65.3934 61.8142V48.7837C65.3934 46.9118 64.8578 45.1001 63.8439 43.5444C63.5161 43.0412 62.8482 42.9029 62.3522 43.2357C61.8563 43.5684 61.72 44.2461 62.048 44.7493C62.8282 45.9466 63.2404 47.3415 63.2404 48.7838V54.6733H60.0195V50.5809C60.0195 49.9776 59.5376 49.4885 58.9429 49.4885C58.3482 49.4885 57.8663 49.9776 57.8663 50.5809V60.7221H43.03V50.5809C43.03 49.9776 42.5482 49.4885 41.9534 49.4885C41.3587 49.4885 40.8769 49.9776 40.8769 50.5809V54.6733H37.6558V48.7838C37.6558 45.9156 39.3037 43.3677 41.758 42.1744C41.9185 43.1537 42.2375 44.103 42.7049 44.9743C42.9003 45.3384 43.2699 45.5446 43.6516 45.5446C43.8254 45.5446 44.0018 45.5017 44.1653 45.4114C44.6875 45.123 44.8802 44.4596 44.5961 43.9298C44.3385 43.4495 44.141 42.9373 44.0057 42.4069L45.7094 43.6627C47.1265 44.7084 48.7869 45.231 50.4481 45.231C52.1087 45.231 53.7699 44.7082 55.1872 43.663L56.8937 42.4052C56.1489 45.3105 53.5421 47.4616 50.4492 47.4616C48.924 47.4616 47.4893 46.9528 46.3003 45.99C45.8355 45.6137 45.1579 45.6911 44.7874 46.1626C44.4164 46.6343 44.4927 47.3216 44.9575 47.6979C46.5096 48.9544 48.4599 49.6463 50.4493 49.6463C54.8148 49.6463 58.447 46.4075 59.1399 42.1743C59.4574 42.329 59.7646 42.5075 60.0604 42.7103C60.2452 42.8372 60.455 42.8981 60.6625 42.8981C61.0078 42.8981 61.3472 42.7298 61.5553 42.4176C61.8883 41.9179 61.7592 41.2387 61.2667 40.9009C60.8466 40.6126 60.4078 40.3631 59.9539 40.1498L60.1815 39.982C63.0953 37.8337 64.6984 34.2503 64.3795 30.6144C65.9441 30.0897 67.0586 28.5986 67.0586 26.8434C67.0586 24.8265 65.5689 23.157 63.6472 22.9051L63.5266 21.6381C63.4697 21.0374 62.9434 20.5984 62.3516 20.6556C61.7598 20.7136 61.3263 21.2474 61.3836 21.8479L62.2302 30.746C62.5061 33.6421 61.236 36.5039 58.9159 38.2144L53.9217 41.8956C51.8436 43.428 49.0524 43.428 46.9753 41.8954L41.9813 38.2143C39.6611 36.5036 38.3909 33.6419 38.6668 30.7456L39.43 22.725C41.0788 22.4724 44.5089 21.6727 46.1685 19.2801C48.5926 20.5299 51.5086 20.4282 55.0394 18.9788C57.5683 17.9405 60.1745 18.1664 62.7849 19.6503C64.8144 20.8036 66.087 22.317 66.0981 22.3305C66.3066 22.583 66.6111 22.7213 66.9234 22.7213C67.0464 22.7213 67.1709 22.6999 67.2912 22.6555C67.7166 22.4985 67.9999 22.0882 67.9999 21.629C67.9997 16.4123 65.6122 11.9479 61.2769 9.05883ZM36.7359 28.3056C36.2837 27.9816 35.9906 27.4473 35.9906 26.8431C35.9906 26.1186 36.4182 25.4949 37.0302 25.2143L36.7359 28.3056ZM60.0197 56.8579H63.2407V60.722H60.0197V56.8579ZM40.877 56.8579V60.722H37.6559V56.8579H40.877ZM64.9051 26.8431C64.9051 27.4467 64.6122 27.9807 64.1605 28.3045L63.8666 25.215C64.478 25.496 64.9051 26.1193 64.9051 26.8431Z" fill="white"/>
<path d="M45.0321 27.8632C44.4374 27.8632 43.9556 28.3522 43.9556 28.9556V30.4364C43.9556 31.0397 44.4374 31.5288 45.0321 31.5288C45.6269 31.5288 46.1087 31.0397 46.1087 30.4364V28.9556C46.1086 28.3522 45.6267 27.8632 45.0321 27.8632Z" fill="white"/>
<path d="M58.7111 24.6033C57.9505 23.8315 56.9393 23.4066 55.8638 23.4066C54.7883 23.4066 53.777 23.8316 53.0164 24.6033C52.5961 25.0298 52.5961 25.7215 53.0166 26.1481C53.4368 26.5747 54.1185 26.5745 54.5388 26.1481C54.8927 25.7891 55.3632 25.5912 55.8635 25.5912C56.3638 25.5912 56.8345 25.7891 57.1882 26.1481C57.3986 26.3613 57.674 26.4679 57.9496 26.4679C58.225 26.4679 58.5006 26.3613 58.7107 26.1481C59.1315 25.7215 59.1315 25.0299 58.7111 24.6033Z" fill="white"/>
<path d="M47.8793 24.6033C47.1187 23.8315 46.1075 23.4066 45.032 23.4066C43.9565 23.4066 42.9452 23.8316 42.1846 24.6033C41.764 25.0298 41.764 25.7214 42.1845 26.1479C42.605 26.5745 43.2866 26.5745 43.7068 26.1479C44.0607 25.7888 44.5313 25.591 45.0317 25.591C45.5321 25.591 46.0027 25.7888 46.3564 26.1478C46.5667 26.3613 46.8422 26.4679 47.1178 26.4679C47.3932 26.4679 47.6688 26.3613 47.8789 26.1481C48.2998 25.7216 48.2998 25.0299 47.8793 24.6033Z" fill="white"/>
<path d="M55.8637 27.8632C55.269 27.8632 54.7871 28.3522 54.7871 28.9556V30.4364C54.7871 31.0397 55.269 31.5288 55.8637 31.5288C56.4584 31.5288 56.9403 31.0397 56.9403 30.4364V28.9556C56.9403 28.3522 56.4583 27.8632 55.8637 27.8632Z" fill="white"/>
<path d="M53.575 36.2999C53.1544 35.8733 52.4729 35.8733 52.0524 36.2999C51.1679 37.1976 49.7282 37.1976 48.8437 36.2999C48.4231 35.8733 47.7416 35.8733 47.3211 36.2999C46.9008 36.7265 46.9008 37.4182 47.3211 37.8446C48.1832 38.7193 49.3156 39.1566 50.4479 39.1566C51.5804 39.1566 52.7126 38.7193 53.5748 37.8446C53.9955 37.418 53.9955 36.7263 53.575 36.2999Z" fill="white"/>
<path d="M51.3604 27.9867C50.7657 27.9867 50.2838 28.4758 50.2838 29.0791V31.6902H49.5356C48.941 31.6902 48.459 32.1792 48.459 32.7826C48.459 33.3859 48.9408 33.875 49.5356 33.875H51.3604C51.9551 33.875 52.437 33.3859 52.437 32.7826V29.0792C52.4368 28.4758 51.955 27.9867 51.3604 27.9867Z" fill="white"/>
<path d="M24.762 31.3521C24.032 30.6113 23.0613 30.2034 22.0291 30.2034C20.9966 30.2034 20.0259 30.6113 19.2958 31.3521C18.8753 31.7786 18.8753 32.4704 19.2958 32.8968C19.7162 33.3233 20.3979 33.3233 20.8181 32.8968C21.1415 32.5686 21.5716 32.3879 22.0288 32.3879C22.4861 32.3879 22.9162 32.5686 23.2395 32.8968C23.4497 33.11 23.7252 33.2167 24.0007 33.2167C24.2761 33.2167 24.5517 33.1101 24.7618 32.8968C25.1823 32.4703 25.1823 31.7785 24.762 31.3521Z" fill="white"/>
<path d="M14.5238 31.3521C13.7938 30.6113 12.823 30.2034 11.7908 30.2034C10.7583 30.2034 9.78762 30.6113 9.05755 31.3521C8.63707 31.7786 8.63707 32.4704 9.05755 32.8968C9.47803 33.3233 10.1596 33.3233 10.5798 32.8968C10.9032 32.5686 11.3333 32.3879 11.7906 32.3879C12.2478 32.3879 12.6779 32.5686 13.0013 32.8968C13.2114 33.11 13.487 33.2167 13.7624 33.2167C14.0379 33.2167 14.3136 33.1101 14.5237 32.8968C14.9443 32.4703 14.9443 31.7785 14.5238 31.3521Z" fill="white"/>
<path d="M19.9075 38.5189C19.4871 38.0923 18.8054 38.0923 18.3851 38.5189C17.5717 39.3443 16.2485 39.3442 15.4353 38.5189C15.0148 38.0923 14.3332 38.0923 13.913 38.5189C13.4925 38.9455 13.4925 39.6372 13.913 40.0636C14.7136 40.8759 15.7781 41.3233 16.9103 41.3233C18.0425 41.3233 19.107 40.8759 19.9076 40.0636C20.3278 39.637 20.3278 38.9454 19.9075 38.5189Z" fill="white"/>
<path d="M17.6386 33.7534H16.182C15.5876 33.7534 15.1055 34.2425 15.1055 34.8458C15.1055 35.449 15.5874 35.9382 16.182 35.9382H17.6386C18.2331 35.9382 18.7152 35.4492 18.7152 34.8458C18.715 34.2425 18.2331 33.7534 17.6386 33.7534Z" fill="white"/>
<path d="M33.8195 29.1329C33.8195 27.6707 33.0038 26.3987 31.8101 25.7586L33.2069 23.8143C33.8588 22.9069 33.9802 21.7523 33.5317 20.7256C33.0832 19.699 32.1583 19.015 31.0578 18.896C30.4677 18.8323 29.9364 19.2664 29.8734 19.8665C29.8105 20.4665 30.2384 21.0044 30.8298 21.0683C31.3003 21.1193 31.4997 21.4649 31.5636 21.6112C31.6275 21.7574 31.7461 22.1394 31.4673 22.5274L29.1354 25.7732C28.8566 26.1611 28.4621 26.1634 28.3053 26.1467C28.1486 26.1298 27.7633 26.0428 27.5715 25.604L25.9265 21.8393C26.2941 21.5055 26.5916 21.0945 26.7952 20.6316L27.8925 20.7503C27.9314 20.7545 27.9699 20.7566 28.0081 20.7566C28.5514 20.7566 29.0182 20.3405 29.0771 19.7801C29.14 19.1801 28.7121 18.642 28.1208 18.5781L27.025 18.4595C26.6934 16.8432 25.279 15.6249 23.5891 15.6249C23.4644 15.6249 23.3414 15.6318 23.2199 15.6447L21.575 11.8818C21.1264 10.8554 20.2015 10.1715 19.1012 10.0526C18.0004 9.93323 16.9548 10.4044 16.3029 11.3119L13.9713 14.5582C13.3195 15.4657 13.1982 16.6204 13.647 17.6469C14.0955 18.6734 15.0205 19.3573 16.121 19.4763L20.1532 19.9123C20.2112 20.1952 20.3023 20.4659 20.4222 20.72C17.6894 23.4388 13.0562 26.1017 5.98796 24.4955C6.98392 21.2782 9.32872 18.6109 12.455 17.2693C13.0026 17.0344 13.2588 16.3933 13.0271 15.8377C12.7955 15.2821 12.1639 15.022 11.6163 15.2571C7.43216 17.0526 4.42689 20.8474 3.56348 25.3235C1.58126 25.4272 0 27.0964 0 29.1331C0 30.8718 1.13833 32.3412 2.71508 32.7995C2.4958 36.5251 4.16658 40.1459 7.16083 42.3531L8.01149 42.9802C4.8584 44.4075 2.72437 47.6205 2.72437 51.2473V53.6161C2.72437 54.2193 3.20635 54.7085 3.80095 54.7085C4.39555 54.7085 4.87752 54.2194 4.87752 53.6161V51.2473C4.87752 48.5867 6.39038 46.2193 8.65191 45.0871C9.34293 49.0788 12.7821 52.1224 16.911 52.1224C20.2892 52.1224 23.3227 50.082 24.6393 46.9242C24.8709 46.3687 24.6148 45.7278 24.0673 45.4926C23.5199 45.2576 22.888 45.5173 22.6564 46.073C21.6776 48.4208 19.4224 49.9376 16.911 49.9376C13.9693 49.9376 11.4987 47.8593 10.8462 45.0696L12.066 45.9689C13.5148 47.037 15.2127 47.5711 16.9106 47.5711C18.6084 47.5711 20.3063 47.037 21.7551 45.9689L23.6763 44.5526C26.7398 45.2538 28.9436 48.0363 28.9436 51.2471V60.7217H26.0168V52.9458C26.0168 52.3426 25.5348 51.8534 24.9402 51.8534C24.3456 51.8534 23.8637 52.3424 23.8637 52.9458V60.7217H9.95705V52.9458C9.95705 52.3426 9.47507 51.8534 8.88048 51.8534C8.28588 51.8534 7.8039 52.3424 7.8039 52.9458V60.7217H4.87726V57.6114C4.87726 57.0081 4.39528 56.5189 3.80068 56.5189C3.20608 56.5189 2.72411 57.008 2.72411 57.6114V61.8141C2.72411 62.4173 3.20608 62.9065 3.80068 62.9065H30.0198C30.6142 62.9065 31.0963 62.4175 31.0963 61.8141V51.2472C31.0963 47.6203 28.9622 44.4073 25.8092 42.98L26.6596 42.353C29.6541 40.1454 31.3249 36.5245 31.1054 32.7987C32.6817 32.3395 33.8195 30.8709 33.8195 29.1329ZM2.9459 30.5408C2.46977 30.2577 2.15302 29.7329 2.15302 29.1331C2.15302 28.408 2.62211 27.7928 3.26824 27.5817L2.9459 30.5408ZM23.5889 17.8097C24.3367 17.8097 24.9453 18.4271 24.9453 19.1861C24.9453 19.9451 24.3369 20.5624 23.5889 20.5624C22.8409 20.5624 22.2325 19.9451 22.2325 19.1861C22.2325 18.4271 22.8409 17.8097 23.5889 17.8097ZM20.3829 17.74L16.3489 17.3039C15.8783 17.2531 15.679 16.9075 15.615 16.7612C15.551 16.615 15.4325 16.2331 15.7111 15.845L18.0428 12.5985C18.3216 12.2105 18.7163 12.2081 18.8729 12.225C19.0296 12.2419 19.4149 12.3287 19.6068 12.7677L21.2523 16.5321C20.8844 16.8658 20.5867 17.277 20.3829 17.74ZM25.3941 40.5857L20.4894 44.2017C18.3485 45.7801 15.4718 45.7799 13.3311 44.2017L8.42639 40.5857C5.9092 38.73 4.55798 35.6277 4.89983 32.4898L5.53096 26.6962C5.53321 26.675 5.53653 26.6541 5.53906 26.6329C7.19642 27.0094 8.73876 27.1798 10.1678 27.1798C14.2256 27.1798 17.3815 25.8344 19.7518 24.1309C20.373 24.8993 21.41 25.9724 22.8912 26.8367C23.451 27.1633 24.1661 26.9298 24.4235 26.3287C24.6431 25.8161 24.443 25.2218 23.9658 24.9428C22.7677 24.2426 21.9239 23.3662 21.4297 22.759C21.5922 22.6088 21.7494 22.458 21.9016 22.307C22.4027 22.587 22.9778 22.747 23.5893 22.747C23.7141 22.747 23.8376 22.74 23.9592 22.727L25.6034 26.4895C26.0519 27.5159 26.9768 28.1998 28.0771 28.319C28.1897 28.3311 28.3016 28.3371 28.4129 28.3371C28.4316 28.3371 28.4501 28.3358 28.4687 28.3355L28.9213 32.4895C29.2627 35.6277 27.9114 38.7298 25.3941 40.5857ZM30.8745 30.5399L30.5523 27.5823C31.1979 27.794 31.6665 28.4088 31.6665 29.1331C31.6665 29.7322 31.3501 30.2566 30.8745 30.5399Z" fill="white"/>
</svg>
