<svg width="63" height="61" viewBox="0 0 63 61" fill="none" xmlns="http://www.w3.org/2000/svg">
<g clip-path="url(#clip0_485_365)">
<path d="M52.7054 6.68498H45.6832C45.224 2.92586 41.9145 0 37.9108 0C33.9071 0 30.5977 2.92586 30.1386 6.68498H10.2943C9.78368 6.68498 9.36963 7.08589 9.36963 7.58032V60.1048C9.36963 60.5992 9.78368 61.0001 10.2943 61.0001H52.7052C53.2159 61.0001 53.6299 60.5992 53.6299 60.1048V7.5802C53.6299 7.08577 53.216 6.68498 52.7054 6.68498ZM31.9314 7.5802C31.9314 4.38783 34.6138 1.79056 37.9108 1.79056C41.2079 1.79056 43.8903 4.38783 43.8903 7.5802V48.5319C42.4531 46.8861 40.3058 45.8395 37.9108 45.8395C35.5159 45.8395 33.3686 46.8861 31.9314 48.5319V7.5802ZM11.219 8.47554H30.082V10.5049H16.2121C15.7015 10.5049 15.2874 10.9058 15.2874 11.4002V16.1751C15.2874 16.6696 15.7015 17.0705 16.2121 17.0705H30.082V19.0998H11.219V8.47554ZM30.082 12.2956V15.2799H17.1368V12.2956H30.082ZM37.9108 59.2094H11.219V20.8904H30.082V24.8371L25.854 30.466L22.8321 27.0523C22.4687 26.6418 21.7912 26.6418 21.428 27.0523L15.5102 33.7373C15.0058 34.3069 15.439 35.2152 16.2121 35.2152H30.082V38.1996H16.2121C15.7015 38.1996 15.2874 38.6005 15.2874 39.0949C15.2874 39.5894 15.7015 39.9903 16.2121 39.9903H30.082V42.9746H26.0751C25.5644 42.9746 25.1504 43.3755 25.1504 43.87C25.1504 44.3644 25.5644 44.7653 26.0751 44.7653H30.082V47.7497H23.1162C22.6055 47.7497 22.1915 48.1506 22.1915 48.645C22.1915 49.1394 22.6055 49.5403 23.1162 49.5403H30.082V53.42C30.082 53.9145 30.496 54.3154 31.0067 54.3154C31.5173 54.3154 31.9314 53.9145 31.9314 53.42C31.9314 50.2277 34.6138 47.6304 37.9108 47.6304C41.2079 47.6304 43.8903 50.2277 43.8903 53.42C43.8903 56.6124 41.2079 59.2094 37.9108 59.2094ZM30.082 27.8813V33.4247H28.4729L27.0908 31.8634L30.082 27.8813ZM26.0373 33.4247H18.2225L22.1298 29.0107L26.0373 33.4247ZM51.7807 59.2094H49.6848V23.5763C49.6848 23.0818 49.2708 22.6809 48.7601 22.6809C48.2495 22.6809 47.8354 23.0818 47.8354 23.5763V59.2093H42.9562C44.6569 57.8178 45.7396 55.7393 45.7396 53.4197V8.47554H47.8354V19.3584C47.8354 19.8529 48.2495 20.2538 48.7601 20.2538C49.2708 20.2538 49.6848 19.8529 49.6848 19.3584V8.47554H51.7807V59.2094Z" fill="white"/>
<path d="M22.1918 42.9745H16.2123C15.7017 42.9745 15.2876 43.3754 15.2876 43.8698C15.2876 44.3643 15.7017 44.7652 16.2123 44.7652H22.1918C22.7024 44.7652 23.1165 44.3643 23.1165 43.8698C23.1165 43.3754 22.7024 42.9745 22.1918 42.9745Z" fill="white"/>
<path d="M19.2329 47.7496H16.2123C15.7017 47.7496 15.2876 48.1505 15.2876 48.6449C15.2876 49.1394 15.7017 49.5403 16.2123 49.5403H19.2329C19.7435 49.5403 20.1576 49.1394 20.1576 48.6449C20.1576 48.1504 19.7435 47.7496 19.2329 47.7496Z" fill="white"/>
</g>
<defs>
<clipPath id="clip0_485_365">
<rect width="63" height="61" fill="white"/>
</clipPath>
</defs>
</svg>
