<svg width="63" height="62" viewBox="0 0 63 62" fill="none" xmlns="http://www.w3.org/2000/svg">
<g clip-path="url(#clip0_485_357)">
<path d="M35.1012 29.3549C35.3198 28.9018 35.1237 28.3601 34.6632 28.1451C34.2026 27.93 33.6523 28.123 33.4338 28.5761C33.0396 29.3935 32.191 29.9217 31.272 29.9217C30.353 29.9217 29.5044 29.3935 29.1103 28.5761C28.8918 28.123 28.3414 27.93 27.881 28.1451C27.4205 28.3601 27.2244 28.9018 27.4428 29.3549C28.141 30.8027 29.644 31.7382 31.272 31.7382C32.9 31.7382 34.4031 30.8026 35.1012 29.3549Z" fill="white"/>
<path d="M24.455 25.6146C25.1912 25.6146 25.788 24.7404 25.788 23.662C25.788 22.5836 25.1912 21.7094 24.455 21.7094C23.7189 21.7094 23.1221 22.5836 23.1221 23.662C23.1221 24.7404 23.7189 25.6146 24.455 25.6146Z" fill="white"/>
<path d="M38.0888 25.6146C38.825 25.6146 39.4218 24.7404 39.4218 23.662C39.4218 22.5836 38.825 21.7094 38.0888 21.7094C37.3526 21.7094 36.7559 22.5836 36.7559 23.662C36.7559 24.7404 37.3526 25.6146 38.0888 25.6146Z" fill="white"/>
<path d="M51.3325 38.5674C51.2246 38.0772 50.7336 37.766 50.2352 37.8722L40.0161 40.0519C39.518 40.1581 39.2018 40.6416 39.3097 41.1318C39.4033 41.5572 39.7858 41.8478 40.2106 41.8478C40.2754 41.8478 40.3412 41.841 40.407 41.827L50.6261 39.6473C51.1242 39.5411 51.4404 39.0577 51.3325 38.5674Z" fill="white"/>
<path d="M50.2351 41.247L40.0161 43.4267C39.518 43.5329 39.2018 44.0164 39.3097 44.5066C39.4033 44.932 39.7858 45.2226 40.2106 45.2226C40.2754 45.2226 40.3412 45.2159 40.407 45.2018L50.6261 43.0221C51.1242 42.9159 51.4404 42.4324 51.3325 41.9422C51.2247 41.452 50.7337 41.1409 50.2351 41.247Z" fill="white"/>
<path d="M56.1533 35.5654H55.601V33.9607C55.601 32.8389 55.0917 31.7916 54.2038 31.0872C53.3161 30.3829 52.1683 30.1154 51.0546 30.3535L46.2442 31.3794C46.5646 30.5283 46.755 29.6299 46.8031 28.7154C46.8342 28.117 46.8585 27.5175 46.8784 26.9174C48.7312 26.5197 50.1233 24.8935 50.1233 22.9525C50.1233 20.9888 48.6997 19.3467 46.8153 18.9726C46.7041 16.6975 46.5125 14.4248 46.242 12.1646C48.4014 9.89711 50.0988 7.37122 50.6317 5.51376C50.9698 4.33528 50.8736 3.39232 50.3456 2.71129C49.8584 2.08281 49.1942 1.74859 48.4246 1.74484C47.5436 1.74169 46.581 2.15753 45.4845 3.01523C45.526 2.23696 45.3873 1.59432 45.0685 1.09529C44.7495 0.595539 44.0967 0 42.7993 0C41.0739 0 39.7183 0.953008 38.7279 2.05411C38.6311 1.61479 38.4663 1.20476 38.2053 0.867152C37.767 0.299949 37.126 0 36.3515 0C34.8559 0 33.6761 1.22075 32.5021 2.70075C32.0102 2.42769 31.328 2.08075 30.5203 1.75513C30.154 1.60825 29.7765 1.47238 29.3946 1.34995C28.0385 0.922008 26.766 0.735523 25.6126 0.795586C25.6043 0.795949 25.5929 0.796797 25.5822 0.797766C25.5791 0.797887 25.576 0.798008 25.5728 0.79825C25.4023 0.807816 25.2364 0.822711 25.0637 0.844023C23.0752 1.09287 21.505 2.08439 20.3856 3.79508C18.383 3.10472 15.1515 2.856 13.3906 5.66501C13.123 6.09186 13.2576 6.65144 13.6914 6.91482C13.8425 7.00648 14.0098 7.0502 14.1751 7.0502C14.4847 7.0502 14.787 6.89702 14.9614 6.61874C16.6073 3.99331 20.2217 5.68111 20.3726 5.75316C20.8239 5.97162 21.3696 5.79446 21.6 5.35477C22.4483 3.7372 23.6575 2.85103 25.2945 2.64614C25.4204 2.63064 25.5427 2.61962 25.6681 2.61236C25.6872 2.61163 25.7067 2.6103 25.7265 2.60872C26.6515 2.56283 27.6956 2.72146 28.8269 3.07845C29.163 3.1861 29.4984 3.30683 29.8223 3.43676C30.4296 3.68161 30.9613 3.94257 31.3723 4.16199C30.404 5.40853 29.406 6.58229 28.3675 6.95974C27.8893 7.13351 27.6448 7.65579 27.8214 8.12636C27.9981 8.59693 28.5288 8.83742 29.0068 8.66377C30.7114 8.04426 32.0199 6.33647 33.2854 4.685C34.3157 3.34025 35.4834 1.81641 36.3515 1.81641C36.5991 1.81641 36.6797 1.89379 36.7359 1.96632C37.1906 2.55363 36.9704 4.37124 36.6788 5.41386C36.5469 5.88177 36.8123 6.36893 37.2812 6.51981C37.7504 6.67093 38.2568 6.43202 38.4312 5.97791C38.4472 5.93626 40.1058 1.81641 42.7993 1.81641C43.3489 1.81641 43.4671 2.00095 43.5058 2.0615C43.9337 2.72982 43.3488 4.65303 42.8192 5.74178C42.6147 6.16004 42.7637 6.6627 43.1646 6.90731C43.5654 7.15192 44.0893 7.05964 44.379 6.69346C44.3855 6.68522 45.0361 5.86627 45.9157 5.05203C47.3667 3.7085 48.1426 3.56113 48.4119 3.56113H48.4155C48.5767 3.56197 48.7171 3.60508 48.8782 3.81288C49.0261 4.00372 49.0176 4.45492 48.8554 5.02006C47.9495 8.17746 42.7605 13.919 38.6952 15.4648C33.3912 17.4816 26.302 16.3919 22.8919 13.0359C22.6451 12.7929 22.2802 12.7079 21.949 12.816C21.6177 12.9241 21.3767 13.2067 21.3263 13.5466C21.3242 13.5604 21.113 14.9401 20.3778 16.3176C19.4658 18.0269 18.1994 18.8935 16.6139 18.8935C16.6127 18.8935 16.6116 18.8937 16.6105 18.8937C16.5886 18.8932 16.5668 18.8923 16.5449 18.8923C16.0638 18.8923 15.602 18.9747 15.1722 19.1245C14.2251 15.1853 13.8567 12.002 14.0806 9.65493C14.1283 9.15554 13.7555 8.7127 13.2481 8.66583C12.7408 8.61909 12.2907 8.98576 12.2431 9.48515C11.9882 12.1565 12.4236 15.7551 13.5334 20.1826C12.8439 20.9085 12.4206 21.8825 12.4206 22.9525C12.4206 24.8938 13.8131 26.5204 15.6666 26.9177C15.6866 27.5183 15.7109 28.118 15.7421 28.7152C15.7874 29.591 15.9639 30.4537 16.2605 31.2739L11.9452 30.3535C10.8313 30.1154 9.68331 30.3828 8.7954 31.0872C7.9075 31.7916 7.39833 32.8389 7.39833 33.9607V35.5654H6.84597C4.91057 35.5654 3.33594 37.115 3.33594 39.0197V41.3051C3.33594 43.2098 4.91057 44.7594 6.84597 44.7594H7.39833V54.4304C7.39833 56.156 8.64196 57.6737 10.3554 58.039L28.8309 61.9794C28.832 61.9797 28.8331 61.9797 28.8341 61.9799C28.8595 61.9852 28.8856 61.9891 28.9118 61.9923C28.9177 61.993 28.9235 61.9943 28.9294 61.9949C28.96 61.9981 28.991 61.9996 29.0223 61.9998C29.0237 61.9998 29.025 62 29.0264 62H33.9729C33.9742 62 33.9756 61.9998 33.9769 61.9998C34.0083 61.9996 34.0393 61.9981 34.0698 61.9949C34.0758 61.9943 34.0815 61.993 34.0874 61.9923C34.1136 61.9891 34.1396 61.9852 34.1652 61.9799C34.1663 61.9797 34.1674 61.9797 34.1684 61.9794L52.6438 58.039C54.3572 57.6737 55.6008 56.156 55.6008 54.4304V53.1919C55.6008 52.6903 55.1876 52.2837 54.678 52.2837C54.1683 52.2837 53.7551 52.6903 53.7551 53.1919V54.4304C53.7551 55.3071 53.1234 56.0782 52.253 56.2638L34.8956 59.9657V35.6584L51.4459 32.1285C52.0114 32.0076 52.5944 32.1435 53.0455 32.5013C53.4966 32.8592 53.7554 33.3911 53.7554 33.9607V35.8664C52.5312 36.4065 51.6759 37.6162 51.6759 39.0196V41.3051C51.6759 42.7086 52.5312 43.9183 53.7554 44.4582V49.5591C53.7554 50.0606 54.1686 50.4673 54.6782 50.4673C55.1879 50.4673 55.6011 50.0606 55.6011 49.5591V44.7594H56.1534C58.0888 44.7594 59.6635 43.2098 59.6635 41.3051V39.0196C59.6633 37.1149 58.0887 35.5654 56.1533 35.5654ZM48.2776 22.9524C48.2776 23.8652 47.7197 24.6509 46.9226 25.0005C46.9407 23.6312 46.9297 22.2596 46.8896 20.8876C47.7045 21.2297 48.2776 22.0262 48.2776 22.9524ZM14.2666 22.9524C14.2666 22.0272 14.8385 21.2312 15.6523 20.8885C15.6126 22.2573 15.6033 23.6306 15.6218 25.0005C14.8245 24.6511 14.2666 23.8653 14.2666 22.9524ZM17.5856 28.6221C17.4472 25.9834 17.4219 23.3039 17.5075 20.6442C19.3932 20.3628 20.9387 19.1737 22.0121 17.1621C22.3557 16.5184 22.6032 15.877 22.778 15.33C24.6584 16.7094 27.1403 17.6673 29.9291 18.0711C33.2137 18.5466 36.5631 18.2228 39.3605 17.1592C41.0743 16.5076 42.8939 15.2693 44.567 13.7837C45.0829 18.7169 45.2158 23.6996 44.9599 28.6221C44.8997 29.7662 44.5613 30.8787 43.9791 31.8625L33.8741 34.0178H29.1253L18.5007 31.7518C17.9582 30.7966 17.6426 29.7227 17.5856 28.6221ZM29.9496 35.8341H33.0499V60.1836H29.9496V35.8341ZM5.18189 41.3051V39.0196C5.18189 38.1164 5.92853 37.3816 6.84622 37.3816H7.81386C8.73154 37.3816 9.47819 38.1164 9.47819 39.0196V41.3051C9.47819 42.2082 8.73154 42.943 7.81386 42.943H6.84622C5.92853 42.943 5.18189 42.2083 5.18189 41.3051ZM9.24428 54.4304V44.4584C10.4685 43.9183 11.3238 42.7086 11.3238 41.3052V39.0197C11.3238 37.6162 10.4685 36.4065 9.24428 35.8665V33.9607C9.24428 33.3911 9.50305 32.8592 9.95414 32.5013C10.4052 32.1435 10.9882 32.0076 11.5541 32.1286L28.1039 35.6584V59.9657L10.7464 56.2638C9.876 56.0782 9.24428 55.3071 9.24428 54.4304ZM57.8176 41.3051C57.8176 42.2082 57.071 42.943 56.1533 42.943H55.1857C54.268 42.943 53.5213 42.2082 53.5213 41.3051V39.0196C53.5213 38.1164 54.268 37.3816 55.1857 37.3816H56.1533C57.071 37.3816 57.8176 38.1164 57.8176 39.0196V41.3051Z" fill="white"/>
</g>
<defs>
<clipPath id="clip0_485_357">
<rect width="63" height="62" fill="white"/>
</clipPath>
</defs>
</svg>
