<?xml version="1.0" standalone="no"?>
<!DOCTYPE svg PUBLIC "-//W3C//DTD SVG 20010904//EN"
 "http://www.w3.org/TR/2001/REC-SVG-20010904/DTD/svg10.dtd">
<svg version="1.0" xmlns="http://www.w3.org/2000/svg"
 width="264.000000pt" height="264.000000pt" viewBox="0 0 264.000000 264.000000"
 preserveAspectRatio="xMidYMid meet">
<metadata>
Created by potrace 1.14, written by Peter Selinger 2001-2017
</metadata>
<g transform="translate(0.000000,264.000000) scale(0.100000,-0.100000)"
fill="#000000" stroke="none">
<path d="M1040 2544 c-25 -7 -59 -13 -77 -13 -17 -1 -35 -6 -38 -11 -4 -6 -15
-8 -26 -5 -11 4 -37 -2 -59 -12 -31 -14 -40 -24 -40 -44 0 -19 -8 -29 -32 -40
-26 -11 -34 -21 -36 -46 -4 -37 -33 -63 -63 -56 -16 5 -19 0 -19 -31 0 -32 -4
-38 -31 -48 -25 -9 -30 -14 -25 -34 5 -17 0 -27 -21 -41 -60 -41 -201 -194
-216 -235 -3 -9 -19 -19 -36 -23 -19 -4 -38 -18 -51 -40 -11 -18 -27 -36 -35
-39 -8 -3 -15 -10 -15 -17 0 -6 -9 -22 -20 -36 -11 -14 -20 -36 -20 -49 0 -12
-5 -26 -10 -29 -6 -3 -10 -18 -10 -33 0 -15 -7 -38 -16 -50 -14 -20 -14 -33
-4 -105 17 -109 18 -141 5 -149 -5 -4 2 -8 16 -8 38 0 56 -28 61 -95 4 -50 2
-62 -15 -75 -17 -14 -18 -20 -8 -39 11 -19 10 -26 -5 -42 -10 -11 -12 -19 -6
-19 14 0 16 -52 3 -65 -13 -13 -31 -130 -28 -180 3 -47 33 -102 59 -108 10 -3
18 -14 18 -27 0 -11 11 -32 25 -46 14 -14 32 -38 40 -54 8 -16 22 -33 31 -38
8 -5 21 -24 27 -43 12 -33 74 -99 94 -99 5 0 22 -13 38 -30 15 -16 31 -27 36
-25 8 6 64 -47 79 -75 6 -10 25 -24 44 -31 19 -7 39 -22 44 -34 6 -14 40 -34
96 -57 74 -31 88 -34 103 -22 10 7 35 14 56 14 30 0 40 -4 44 -20 7 -26 81
-64 98 -50 9 8 23 6 48 -6 22 -11 42 -14 54 -9 10 5 28 10 41 11 13 2 29 7 35
12 16 13 48 17 72 9 30 -9 173 8 229 29 42 15 50 15 60 3 15 -19 82 -16 105 5
10 9 26 16 37 16 22 0 84 42 97 66 5 8 25 21 45 29 20 9 44 28 53 44 13 22 29
32 69 42 29 7 55 19 57 26 3 7 15 13 27 13 11 0 37 16 56 35 19 19 40 35 47
35 7 0 13 7 13 16 0 9 9 18 20 21 12 3 29 22 39 42 11 20 28 45 40 55 12 11
21 24 21 30 0 6 9 17 21 24 15 10 19 19 14 35 -17 54 -22 119 -9 124 16 6 59
79 67 113 4 14 24 54 47 88 22 35 40 68 40 73 0 6 15 43 34 83 29 59 35 85 39
156 l4 85 -50 90 c-68 122 -107 181 -206 310 -46 61 -98 129 -115 152 -17 23
-39 45 -49 49 -30 10 -106 64 -116 82 -7 12 -23 17 -56 17 -39 0 -51 5 -68 27
-33 41 -89 74 -136 82 -27 4 -50 15 -61 29 -15 18 -28 22 -79 22 -34 0 -65 5
-69 11 -9 14 -67 44 -85 44 -8 0 -20 7 -28 16 -8 10 -22 14 -38 11 -17 -4 -36
2 -56 17 -16 12 -38 25 -47 29 -10 3 -18 11 -18 17 0 5 -7 10 -16 10 -8 0 -31
18 -51 40 -24 26 -52 45 -87 56 -28 9 -55 22 -61 28 -17 20 -38 23 -85 10z
m475 -583 c17 -20 17 -20 45 0 39 30 91 23 108 -14 10 -21 18 -27 30 -21 45
19 70 16 87 -10 17 -25 17 -29 0 -72 -9 -25 -32 -65 -51 -90 -31 -41 -34 -50
-34 -114 0 -70 0 -71 41 -109 40 -36 42 -41 36 -82 -5 -39 -15 -54 -53 -77 -6
-4 -15 -29 -18 -56 -7 -48 -7 -49 16 -42 13 4 46 9 73 12 65 8 102 -18 111
-77 5 -26 12 -39 23 -39 39 -1 71 -49 71 -107 0 -47 -21 -79 -63 -96 -30 -12
-31 -16 -28 -61 3 -53 -13 -83 -35 -65 -9 7 -14 33 -14 69 0 46 -5 64 -22 83
-20 22 -24 23 -57 11 -42 -15 -163 -42 -206 -46 -21 -2 -30 2 -33 14 -2 13 16
20 95 38 54 13 117 23 140 24 40 1 43 3 43 30 0 23 -3 27 -17 21 -23 -9 -232
-55 -250 -55 -14 0 -18 26 -5 34 5 3 62 17 126 31 81 19 121 24 128 17 8 -8
18 0 34 24 28 41 32 101 8 111 -13 5 -264 -41 -366 -68 l-38 -10 0 -274 c0
-318 -14 -288 123 -256 45 11 118 27 162 36 118 25 135 33 135 64 0 14 5 33
10 41 8 13 11 13 26 -1 14 -14 14 -22 5 -52 -15 -45 -35 -61 -96 -75 -319 -73
-342 -77 -440 -77 -59 0 -129 7 -170 17 -38 9 -126 28 -194 43 -132 28 -165
43 -175 78 -3 12 -6 72 -6 132 l0 111 -33 12 c-39 14 -57 46 -57 103 0 53 14
78 56 95 22 9 34 21 34 34 0 61 46 96 112 86 89 -13 83 -16 80 34 -2 28 -10
50 -20 57 -40 28 -52 48 -52 83 0 20 5 41 11 47 9 9 9 27 -1 75 -8 34 -14 92
-14 127 -1 55 2 66 17 69 15 3 17 -5 17 -56 0 -32 5 -84 11 -115 12 -56 12
-57 46 -57 44 0 87 41 103 98 11 43 29 53 49 28 6 -7 39 -26 72 -41 56 -25 70
-27 158 -23 83 3 103 7 141 30 65 39 164 140 189 193 36 76 7 88 -60 24 -51
-49 -69 -41 -50 21 25 84 -43 84 -91 0 -13 -22 -31 -40 -40 -40 -15 0 -17 8
-15 47 3 71 -18 66 -91 -22 -47 -56 -69 -75 -87 -75 -35 0 -31 13 18 59 l42
40 -39 16 c-22 9 -59 17 -83 18 -37 0 -49 -5 -81 -36 -36 -35 -38 -36 -80 -25
-39 10 -47 8 -72 -11 -36 -26 -50 -27 -50 -3 0 29 74 65 117 57 30 -5 40 -2
64 21 38 36 114 44 193 19 l55 -17 31 26 c37 31 70 33 95 7z"/>
<path d="M1620 1639 c-60 -49 -109 -63 -225 -63 -102 -1 -114 1 -169 28 -47
23 -60 26 -67 15 -5 -8 -9 -19 -9 -25 0 -16 -67 -74 -85 -74 -8 0 -15 -13 -17
-32 -5 -58 8 -208 19 -219 36 -36 306 -70 403 -50 30 6 81 16 114 22 52 10 59
15 72 45 21 50 17 375 -5 374 -3 0 -17 -10 -31 -21z m-393 -171 c14 -31 -1
-71 -24 -66 -20 4 -27 29 -19 64 8 30 30 31 43 2z m302 8 c18 -21 10 -70 -11
-74 -25 -5 -44 39 -29 67 14 25 24 26 40 7z m-209 -156 c11 -11 28 -20 38 -20
11 0 27 9 37 20 20 22 40 26 50 10 10 -16 -51 -70 -79 -70 -49 0 -107 45 -91
70 9 15 23 12 45 -10z"/>
<path d="M975 1480 c-7 -21 10 -60 25 -60 6 0 10 18 10 40 0 43 -23 57 -35 20z"/>
<path d="M1710 1466 c0 -26 4 -36 16 -36 11 0 14 8 12 32 -4 46 -28 49 -28 4z"/>
<path d="M872 1238 c-19 -19 -14 -58 13 -90 36 -43 36 -125 -1 -165 -26 -27
-26 -31 -20 -117 3 -49 6 -104 6 -121 0 -38 11 -43 135 -69 97 -20 151 -32
210 -47 79 -20 75 -33 75 266 l0 265 -22 10 c-30 13 -335 80 -363 80 -11 0
-26 -5 -33 -12z"/>
<path d="M1330 890 l0 -281 33 3 32 3 0 275 0 275 -32 3 -33 3 0 -281z"/>
<path d="M782 1118 c-18 -18 -15 -84 4 -103 18 -18 63 -13 76 8 12 19 9 82 -4
95 -15 15 -61 15 -76 0z"/>
<path d="M1873 1123 c-8 -3 -13 -24 -13 -53 0 -55 22 -77 63 -64 28 9 37 22
37 57 0 57 -36 81 -87 60z"/>
</g>
</svg>
